<svg width="24" height="25" viewBox="0 0 24 25" fill="none" xmlns="http://www.w3.org/2000/svg">
<path d="M21.2345 17.8095H23.5202V20.0953H0.663086L0.663086 17.8095H2.9488L2.9488 9.80954C2.9488 7.38471 3.91206 5.05919 5.62668 3.34457C7.3413 1.62995 9.66682 0.666687 12.0917 0.666687C14.5165 0.666687 16.842 1.62995 18.5566 3.34457C20.2713 5.05919 21.2345 7.38471 21.2345 9.80954V17.8095ZM18.9488 17.8095V9.80954C18.9488 7.99092 18.2264 6.24678 16.9404 4.96081C15.6544 3.67485 13.9103 2.9524 12.0917 2.9524C10.273 2.9524 8.52889 3.67485 7.24293 4.96081C5.95696 6.24678 5.23451 7.99092 5.23451 9.80954V17.8095H18.9488ZM8.66309 22.381H15.5202V24.6667H8.66309L8.66309 22.381Z" fill="black"/>
</svg>
