<svg width="22" height="20" viewBox="0 0 22 20" fill="none" xmlns="http://www.w3.org/2000/svg">
<path d="M11.0012 3.77378C12.98 2.01667 16.038 2.075 17.944 3.96447C19.8501 5.85393 19.9156 8.86417 18.1428 10.8275L11.0002 17.9042L3.8578 10.8275C2.08508 8.86417 2.15135 5.84918 4.0566 3.96447C5.964 2.07763 9.01659 2.01406 11.0012 3.77378ZM16.7515 5.14175C15.4886 3.88995 13.4497 3.83918 12.1266 5.01406L11.0019 6.0127L9.87662 5.01484C8.54972 3.83831 6.51451 3.89007 5.24795 5.14298C3.99297 6.38443 3.92996 8.37275 5.08651 9.686L11.0002 15.5453L16.9142 9.686C18.0711 8.37225 18.0084 6.38771 16.7515 5.14175Z" fill="#0B8FAC"/>
</svg>
