<svg width="32" height="32" viewBox="0 0 32 32" fill="none" xmlns="http://www.w3.org/2000/svg">
<g clip-path="url(#clip0_25_801)">
<path d="M23.2345 19.8095H25.5202V22.0953H2.66309V19.8095H4.9488L4.9488 11.8095C4.9488 9.38471 5.91206 7.05919 7.62668 5.34457C9.3413 3.62995 11.6668 2.66669 14.0917 2.66669C16.5165 2.66669 18.842 3.62995 20.5566 5.34457C22.2713 7.05919 23.2345 9.38471 23.2345 11.8095V19.8095ZM20.9488 19.8095V11.8095C20.9488 9.99092 20.2264 8.24678 18.9404 6.96081C17.6544 5.67485 15.9103 4.9524 14.0917 4.9524C12.273 4.9524 10.5289 5.67485 9.24293 6.96081C7.95696 8.24678 7.23451 9.99092 7.23451 11.8095V19.8095H20.9488ZM10.6631 24.381H17.5202V26.6667H10.6631L10.6631 24.381Z" fill="black"/>
<circle cx="19.8291" cy="4.16663" r="4.5" fill="#F30000"/>
</g>
<defs>
<clipPath id="clip0_25_801">
<rect width="32" height="32" fill="white" transform="translate(-0.00390625)"/>
</clipPath>
</defs>
</svg>
