<svg width="32" height="32" viewBox="0 0 32 32" fill="none" xmlns="http://www.w3.org/2000/svg">
<g clip-path="url(#clip0_25_348)">
<path d="M23.2379 19.8095H25.5236V22.0953H2.6665V19.8095H4.95222L4.95222 11.8095C4.95222 9.38471 5.91548 7.05919 7.6301 5.34457C9.34472 3.62995 11.6702 2.66669 14.0951 2.66669C16.5199 2.66669 18.8454 3.62995 20.5601 5.34457C22.2747 7.05919 23.2379 9.38471 23.2379 11.8095V19.8095ZM20.9522 19.8095V11.8095C20.9522 9.99092 20.2298 8.24678 18.9438 6.96081C17.6578 5.67485 15.9137 4.9524 14.0951 4.9524C12.2764 4.9524 10.5323 5.67485 9.24634 6.96081C7.96038 8.24678 7.23793 9.99092 7.23793 11.8095V19.8095H20.9522ZM10.6665 24.381H17.5236V26.6667H10.6665L10.6665 24.381Z" fill="black"/>
<circle cx="19.833" cy="4.16663" r="4.5" fill="#F30000"/>
</g>
<defs>
<clipPath id="clip0_25_348">
<rect width="32" height="32" fill="white"/>
</clipPath>
</defs>
</svg>
