<svg width="6" height="20" viewBox="0 0 6 20" fill="none" xmlns="http://www.w3.org/2000/svg">
<path fill-rule="evenodd" clip-rule="evenodd" d="M3.00007 14.5714C4.26242 14.5714 5.28578 15.5948 5.28578 16.8571C5.28578 18.1195 4.26242 19.1428 3.00007 19.1428C1.73772 19.1428 0.714355 18.1195 0.714355 16.8571C0.714355 15.5948 1.73772 14.5714 3.00007 14.5714ZM3.00007 7.71425C4.26242 7.71425 5.28578 8.73761 5.28578 9.99996C5.28578 11.2623 4.26242 12.2857 3.00007 12.2857C1.73772 12.2857 0.714355 11.2623 0.714355 9.99996C0.714355 8.73761 1.73772 7.71425 3.00007 7.71425ZM5.28578 3.14282C5.28578 1.88042 4.26242 0.857107 3.00007 0.857107C1.73772 0.857107 0.714355 1.88042 0.714355 3.14282C0.714355 4.40518 1.73772 5.42854 3.00007 5.42854C4.26242 5.42854 5.28578 4.40518 5.28578 3.14282Z" fill="black"/>
</svg>
