<svg width="25" height="25" viewBox="0 0 25 25" fill="none" xmlns="http://www.w3.org/2000/svg">
<path d="M20.5718 15.084C21.88 13.5822 22.5718 12.2505 22.5718 12.2505C22.5718 12.2505 18.9354 5.25049 12.5718 5.25049C12.2306 5.25049 11.8972 5.27061 11.5718 5.30871C11.2296 5.34877 10.8962 5.40871 10.5718 5.486M12.5718 9.25049C12.9224 9.25049 13.259 9.31064 13.5718 9.42119C14.4242 9.72248 15.0998 10.3981 15.4011 11.2505C15.5116 11.5633 15.5718 11.8999 15.5718 12.2505M3.57178 3.25049L21.5718 21.2505M12.5718 15.2505C12.2211 15.2505 11.8846 15.1903 11.5718 15.0798C10.7194 14.7785 10.0438 14.1029 9.74248 13.2505C9.68564 13.0897 9.64212 12.9226 9.61325 12.7505M4.71879 9.25049C4.41054 9.59499 4.13412 9.9329 3.89041 10.2505C3.02464 11.3787 2.57178 12.2505 2.57178 12.2505C2.57178 12.2505 6.20814 19.2505 12.5718 19.2505C12.913 19.2505 13.2464 19.2304 13.5718 19.1923" stroke="#0B8FAC" stroke-width="2" stroke-linecap="round" stroke-linejoin="round"/>
</svg>
