<svg width="33" height="33" viewBox="0 0 33 33" fill="none" xmlns="http://www.w3.org/2000/svg">
<g clip-path="url(#clip0_1_170)">
<path d="M23.5143 20.6223H25.8V22.908H2.94287V20.6223H5.22859L5.22859 12.6223C5.22859 10.1975 6.19185 7.87193 7.90647 6.15731C9.62108 4.44269 11.9466 3.47943 14.3714 3.47943C16.7963 3.47943 19.1218 4.44269 20.8364 6.15731C22.551 7.87193 23.5143 10.1975 23.5143 12.6223V20.6223ZM21.2286 20.6223V12.6223C21.2286 10.8037 20.5061 9.05952 19.2202 7.77356C17.9342 6.48759 16.1901 5.76515 14.3714 5.76515C12.5528 5.76515 10.8087 6.48759 9.52271 7.77356C8.23675 9.05952 7.5143 10.8037 7.5143 12.6223V20.6223H21.2286ZM10.9429 25.1937H17.8V27.4794H10.9429L10.9429 25.1937Z" fill="black"/>
<circle cx="20.1094" cy="4.97937" r="4.5" fill="#F30000"/>
</g>
<defs>
<clipPath id="clip0_1_170">
<rect width="32" height="32" fill="white" transform="translate(0.276367 0.812744)"/>
</clipPath>
</defs>
</svg>
