<svg width="19" height="19" viewBox="0 0 19 19" fill="none" xmlns="http://www.w3.org/2000/svg">
<path d="M14.0662 13.0881L17.2782 16.3001L16.2176 17.3608L13.0056 14.1487C11.8506 15.0727 10.386 15.6255 8.79297 15.6255C5.06697 15.6255 2.04297 12.6015 2.04297 8.87549C2.04297 5.14949 5.06697 2.12549 8.79297 2.12549C12.519 2.12549 15.543 5.14949 15.543 8.87549C15.543 10.4685 14.9902 11.9332 14.0662 13.0881ZM12.5615 12.5316C13.4786 11.5864 14.043 10.2972 14.043 8.87549C14.043 5.97486 11.6936 3.62549 8.79297 3.62549C5.89234 3.62549 3.54297 5.97486 3.54297 8.87549C3.54297 11.7761 5.89234 14.1255 8.79297 14.1255C10.2147 14.1255 11.5039 13.5611 12.4491 12.644L12.5615 12.5316Z" fill="#858585"/>
</svg>
